<svg width="512" height="512" viewBox="0 0 512 512" fill="none" xmlns="http://www.w3.org/2000/svg">
<rect width="512" height="512" fill="white"/>
<path d="M107 181.5L110.3 147H252.8L249.5 181.5L197.3 177L196.1 276L199.7 354H157.7L161.3 281.1L160.1 177.3L107 181.5ZM280.198 294.3C297.198 311.3 314.198 319.8 331.198 319.8C339.998 319.8 346.998 317.8 352.198 313.8C357.598 309.6 360.298 304.3 360.298 297.9C360.298 291.3 357.098 285.8 350.698 281.4C344.298 276.8 336.498 272.8 327.298 269.4C318.298 266 309.298 262.2 300.298 258C291.298 253.6 283.598 247.4 277.198 239.4C270.798 231.4 267.598 221.7 267.598 210.3C267.598 192.3 275.098 176.8 290.098 163.8C305.098 150.6 322.898 144 343.498 144C352.898 144 361.998 145 370.798 147C379.598 149 388.098 151.9 396.298 155.7L375.898 199.5C370.298 195.1 362.598 191.1 352.798 187.5C343.198 183.7 334.698 181.8 327.298 181.8C320.098 181.8 314.198 183.6 309.598 187.2C305.198 190.6 302.998 195.2 302.998 201C302.998 206.8 306.198 212 312.598 216.6C318.998 221 326.698 224.9 335.698 228.3C344.898 231.7 353.998 235.5 362.998 239.7C372.198 243.7 379.998 249.7 386.398 257.7C392.798 265.7 395.998 275.4 395.998 286.8C395.998 305.6 388.498 322.1 373.498 336.3C358.498 350.3 340.998 357.3 320.998 357.3C305.998 357.3 292.698 353.7 281.098 346.5C270.898 340.3 263.698 334.8 259.498 330L256.798 326.7L280.198 294.3Z" fill="black"/>
</svg>
